<?xml version="1.0" encoding="iso-8859-1"?>
<!-- Generator: Adobe Illustrator 19.0.0, SVG Export Plug-In . SVG Version: 6.00 Build 0)  -->
<svg version="1.1" id="Layer_1" xmlns="http://www.w3.org/2000/svg" xmlns:xlink="http://www.w3.org/1999/xlink" x="0px" y="0px"
	 viewBox="0 0 272.081 272.081" style="enable-background:new 0 0 272.081 272.081;" xml:space="preserve">
<g>
	<path style="fill:#28D2E4;" d="M13.364,166.434c-7.811,7.811-7.811,20.474,0,28.284l63.988,63.989c7.81,7.81,20.474,7.81,28.284,0
		l36.767-36.767L50.13,129.667L13.364,166.434z"/>
	<g>
		<path style="fill:#FFDB77;" d="M166.444,13.355L50.131,129.667l92.273,92.273l116.312-116.313c7.811-7.81,7.811-20.474,0-28.284
			l-63.988-63.988C186.918,5.544,174.254,5.544,166.444,13.355z"/>
		<path style="fill:#22313F;" d="M264.02,72.04L200.031,8.052c-10.722-10.723-28.169-10.723-38.891,0
			C159.878,9.314,11.792,157.4,8.061,161.131c-10.747,10.746-10.749,28.143,0,38.891l63.989,63.989
			c10.746,10.747,28.143,10.749,38.891,0c0.951-0.951,150.325-150.325,153.08-153.08C274.767,100.185,274.769,82.788,264.02,72.04z
			 M100.334,253.404c-4.885,4.885-12.792,4.885-17.678,0l-63.989-63.989c-4.885-4.885-4.886-12.792,0-17.678l31.464-31.464
			l81.667,81.667L100.334,253.404z M253.414,100.325l-111.01,111.009l-81.666-81.666l111.009-111.01
			c4.885-4.885,12.792-4.885,17.678,0l63.989,63.989C258.299,87.532,258.299,95.439,253.414,100.325z"/>
	</g>
</g>
<g>
</g>
<g>
</g>
<g>
</g>
<g>
</g>
<g>
</g>
<g>
</g>
<g>
</g>
<g>
</g>
<g>
</g>
<g>
</g>
<g>
</g>
<g>
</g>
<g>
</g>
<g>
</g>
<g>
</g>
</svg>
