<?xml version="1.0" encoding="iso-8859-1"?>
<!-- Generator: Adobe Illustrator 19.0.0, SVG Export Plug-In . SVG Version: 6.00 Build 0)  -->
<svg version="1.1" id="Layer_1" xmlns="http://www.w3.org/2000/svg" xmlns:xlink="http://www.w3.org/1999/xlink" x="0px" y="0px"
	 viewBox="0 0 512 512" style="enable-background:new 0 0 512 512;" xml:space="preserve">
<polygon style="fill:#CFF09E;" points="278.261,68.885 498.171,213.872 278.261,358.861 "/>
<g>
	<path style="fill:#507C5C;" d="M505.782,202.327L285.872,57.339c-4.244-2.798-9.686-3.042-14.168-0.631
		c-4.479,2.412-7.273,7.089-7.273,12.177v70.598H192.92c-7.638,0-13.829,6.191-13.829,13.83c0,7.638,6.193,13.829,13.829,13.829
		h71.511v191.718c0,5.088,2.794,9.765,7.273,12.177c2.052,1.105,4.307,1.653,6.555,1.653c2.661,0,5.312-0.766,7.613-2.283
		l219.91-144.989c3.882-2.558,6.218-6.897,6.218-11.546C512,209.223,509.663,204.886,505.782,202.327z M292.09,333.179V94.567
		l180.956,119.306L292.09,333.179z"/>
	<path style="fill:#507C5C;" d="M214.915,256.679c-31.15,0-61.995,8.018-89.2,23.188c-27.207,15.17-50.243,37.194-66.618,63.692
		l-31.437,50.869v-62.024c0-69.304,43.747-131.751,108.858-155.39c7.179-2.607,10.887-10.539,8.28-17.718
		c-2.607-7.18-10.541-10.885-17.718-8.28C51.068,178.611,0,251.505,0,332.404v110.709c0,6.183,4.103,11.614,10.051,13.304
		c1.253,0.355,2.523,0.527,3.778,0.527c4.705,0,9.199-2.409,11.765-6.561l57.03-92.286c28.543-46.186,77.997-73.76,132.29-73.76
		c7.638,0,13.829-6.191,13.829-13.829C228.744,262.87,222.553,256.679,214.915,256.679z"/>
</g>
<g>
</g>
<g>
</g>
<g>
</g>
<g>
</g>
<g>
</g>
<g>
</g>
<g>
</g>
<g>
</g>
<g>
</g>
<g>
</g>
<g>
</g>
<g>
</g>
<g>
</g>
<g>
</g>
<g>
</g>
</svg>
